<?xml version="1.0" standalone="no"?>
<!DOCTYPE svg PUBLIC "-//W3C//DTD SVG 20010904//EN"
 "http://www.w3.org/TR/2001/REC-SVG-20010904/DTD/svg10.dtd">
<svg version="1.0" xmlns="http://www.w3.org/2000/svg"
 width="816.000000pt" height="816.000000pt" viewBox="0 0 816.000000 816.000000"
 preserveAspectRatio="xMidYMid meet">
<metadata>
Created by potrace 1.14, written by Peter Selinger 2001-2017
</metadata>
<g transform="translate(0.000000,816.000000) scale(0.100000,-0.100000)"
fill="#000000" stroke="none">
<path d="M3939 7939 c0 -96 0 -181 0 -189 0 -8 0 -113 1 -234 0 -120 -1 -220
-3 -223 -3 -2 -1 -20 3 -39 5 -19 4 -37 -1 -40 -5 -3 -7 -10 -3 -15 3 -5 5
-38 4 -72 0 -34 -1 -83 -2 -109 l0 -48 -67 -1 c-199 -3 -455 -39 -636 -90 -64
-18 -169 -50 -185 -56 -8 -4 -18 -7 -22 -7 -3 -1 -10 -4 -14 -8 -4 -5 -14 -8
-22 -8 -8 0 -30 -7 -50 -16 -128 -55 -179 -77 -192 -85 -8 -4 -44 -22 -80 -40
-84 -42 -250 -142 -317 -191 -29 -21 -55 -38 -58 -38 -4 0 -12 -6 -20 -12 -7
-7 -25 -22 -41 -33 -40 -28 -162 -130 -246 -203 -33 -30 -38 -32 -55 -18 -10
8 -45 36 -78 61 -33 25 -73 56 -90 69 -34 27 -345 268 -395 306 -81 62 -239
184 -274 213 -46 38 -60 43 -75 25 -63 -74 -241 -337 -330 -488 -34 -58 -66
-112 -71 -120 -33 -53 -218 -421 -225 -450 -1 -3 -7 -16 -13 -30 -47 -108 -89
-220 -84 -220 4 0 2 -4 -4 -8 -9 -6 -116 -317 -129 -377 -3 -11 -20 -81 -39
-155 -19 -74 -37 -148 -40 -165 -6 -36 -15 -83 -21 -111 -3 -12 -7 -39 -10
-60 -3 -21 -7 -52 -10 -69 -5 -29 -8 -55 -19 -145 -27 -208 -28 -696 -2 -840
3 -14 10 -61 16 -105 7 -44 14 -88 16 -97 8 -35 14 -64 25 -118 20 -102 119
-434 138 -465 3 -5 6 -13 7 -17 1 -5 3 -10 4 -13 1 -3 3 -8 5 -12 2 -8 3 -12
42 -108 51 -123 154 -338 166 -343 4 -2 7 -9 7 -15 0 -7 10 -28 22 -47 12 -19
22 -37 23 -40 1 -12 164 -267 229 -356 89 -126 185 -248 197 -252 5 -2 9 -8 9
-12 0 -5 10 -20 23 -33 12 -13 61 -66 108 -118 139 -151 245 -252 438 -414 41
-34 37 -31 116 -91 33 -25 67 -50 76 -57 8 -7 22 -16 31 -22 8 -5 63 -43 122
-82 59 -40 109 -73 111 -73 3 0 28 -15 57 -34 104 -66 473 -256 498 -256 5 0
18 -4 28 -10 14 -8 83 -38 102 -45 12 -4 47 -18 65 -25 11 -4 36 -13 55 -20
19 -7 44 -16 55 -21 11 -5 29 -11 40 -12 11 -2 27 -7 35 -10 21 -8 141 -47
163 -53 9 -2 25 -6 35 -8 9 -2 53 -13 97 -25 87 -22 249 -57 305 -66 19 -3 60
-10 90 -15 53 -9 75 -12 185 -26 28 -4 69 -7 92 -8 24 -1 43 -3 43 -6 0 -8
151 -13 430 -14 230 0 337 4 440 18 14 2 50 6 80 10 30 4 93 14 140 23 47 8
96 17 110 20 60 10 271 67 339 90 41 14 79 26 85 28 6 1 20 6 31 10 104 42
194 75 202 75 6 0 16 7 23 15 7 8 16 12 21 9 5 -3 9 0 9 5 0 6 3 10 8 9 9 -3
205 91 212 102 3 4 16 11 30 15 14 4 27 10 30 14 3 3 57 37 120 75 63 38 117
72 120 76 3 3 27 22 55 41 47 32 227 171 251 194 6 5 37 33 69 60 77 67 279
269 335 335 25 29 52 61 61 69 24 23 208 261 227 294 9 15 20 27 24 27 4 0 8
6 8 14 0 8 3 16 8 18 10 4 122 175 122 187 0 5 4 11 8 13 5 2 23 30 42 63 18
33 36 62 39 65 8 7 32 52 125 235 77 152 104 208 142 300 9 22 21 51 27 65 6
14 11 27 12 30 1 3 6 16 12 30 23 57 74 200 98 280 15 47 29 92 32 100 3 8 7
20 9 25 1 6 12 46 23 91 12 45 24 91 26 103 2 13 6 30 9 39 3 9 7 28 10 42 33
190 35 202 44 280 14 125 6 518 -13 670 -11 83 -17 137 -21 165 -1 17 -5 41
-8 55 -3 14 -9 45 -12 70 -3 25 -8 54 -11 65 -2 11 -6 34 -9 50 -2 17 -22 104
-44 195 -22 91 -42 176 -45 189 -3 13 -10 32 -16 43 -5 10 -7 18 -3 18 3 0 1
7 -6 15 -7 8 -10 15 -7 15 3 0 -3 26 -14 58 -11 31 -22 64 -24 72 -2 8 -4 15
-5 15 -1 0 -3 7 -5 15 -2 8 -7 26 -13 40 -5 14 -9 27 -9 30 0 3 -9 23 -20 45
-12 22 -22 45 -23 50 -8 32 -39 108 -96 233 -19 41 -34 78 -34 83 0 5 -5 9
-12 9 -6 0 -8 3 -5 7 4 3 3 11 -2 17 -5 6 -31 54 -59 106 -52 99 -157 272
-198 327 -13 17 -24 35 -24 38 0 4 -10 20 -22 35 -13 15 -30 37 -38 50 -8 12
-19 28 -25 34 -5 6 -26 32 -45 56 -19 25 -42 53 -50 63 -8 10 -23 28 -33 40
-94 114 -253 277 -372 382 -44 39 -85 75 -91 80 -63 56 -336 255 -351 255 -6
0 -13 3 -15 8 -4 10 -85 62 -97 62 -5 0 -11 4 -13 8 -7 19 -356 200 -523 272
-147 63 -448 169 -597 209 -40 11 -98 27 -128 36 -30 9 -66 18 -80 20 -14 2
-45 9 -70 14 -25 6 -56 13 -70 16 -14 3 -36 8 -50 11 -14 4 -34 8 -45 10 -23
3 -114 20 -160 29 -16 4 -46 8 -65 10 -19 2 -35 5 -35 6 0 1 -16 3 -35 5 -19
1 -48 5 -64 9 -15 3 -49 8 -75 10 -25 2 -46 5 -46 6 0 1 -31 5 -110 12 -33 4
-84 9 -113 13 l-53 6 0 -173z m133 -3123 c40 -8 96 -22 123 -31 65 -22 179
-76 183 -87 2 -4 8 -8 13 -8 18 0 114 -83 160 -138 75 -90 154 -258 153 -329
0 -13 3 -23 6 -23 10 0 3 -219 -8 -270 -10 -43 -20 -84 -26 -105 -6 -19 -19
-50 -44 -105 -14 -30 -25 -58 -24 -62 3 -12 -161 -173 -203 -200 -76 -50 -140
-84 -200 -108 -62 -25 -76 -35 -69 -54 6 -16 45 -196 50 -231 2 -16 7 -37 10
-45 3 -8 15 -55 25 -105 10 -49 25 -121 34 -160 9 -38 18 -81 21 -95 3 -14 11
-53 19 -86 8 -34 17 -74 20 -88 3 -14 7 -38 10 -53 3 -14 12 -52 20 -85 7 -32
10 -59 7 -60 -23 -5 -28 -6 -32 -8 -50 -18 -479 -16 -580 4 -14 3 -47 7 -75
10 -52 6 -93 12 -135 22 -14 3 -32 7 -41 9 -56 11 -186 49 -196 58 -7 5 -13 7
-13 4 0 -5 -68 21 -207 78 -24 10 -43 22 -43 27 0 4 -6 8 -14 8 -18 0 -150 76
-166 95 -7 8 -17 15 -22 15 -5 0 -35 21 -66 46 -58 46 -204 184 -196 184 2 0
-12 17 -32 38 -75 78 -185 263 -254 427 -34 79 -90 285 -90 329 0 14 6 26 13
27 6 0 19 2 27 4 8 2 24 6 35 9 38 9 170 37 195 41 14 3 57 12 95 20 39 9 79
18 90 20 11 2 20 4 20 5 0 1 11 3 25 5 14 2 57 11 95 20 39 8 81 18 95 20 14
3 66 14 115 25 50 10 119 25 155 33 l65 14 -2 34 c-5 90 -4 287 2 309 4 14 8
32 9 40 14 78 20 100 29 100 6 0 7 3 4 6 -16 16 62 134 144 217 47 48 89 87
94 87 5 0 18 9 29 19 26 24 145 89 189 103 119 38 242 46 359 24z"/>
</g>
</svg>
